# xmcd CD database file
#
# Track frame offsets:
#	150
#	9270
#	24105
#	40895
#	53970
#	68927
#	84412
#	98227
#	110797
#	125800
#	136220
#	149897
#	161840
#	175367
#	194205
#	207380
#	217727
#	236387
#	250087
#	267612
#	282645
#	291337
#
# Disc length: 3972 seconds
#
# Revision: 0
# Processed by: cddbd v1.5.1PL0 Copyright (c) Steve Scherf et al.
# Submitted via: CDex 1.51
#
DISCID=5f0f8216
DTITLE=Barber, Ball and Bilk - At The Jazz Band Ball
DYEAR=1962
DGENRE=Jazz
TTITLE0=Barber, At the Jazz Band Ball
TTITLE1=Barber, Panama Rag
TTITLE2=Barber, Mood Indigo
TTITLE3=Barber, Ory's Vreole Trombone
TTITLE4=Barber,'Taint Nobodies Business if I do
TTITLE5=Barber, Pretty Baby
TTITLE6=Barber, Stevedore Stomp
TTITLE7=Ball, Dippermouth Blues
TTITLE8=Ball, Black and Tan Fantasy
TTITLE9=Ball, I'm Moving On
TTITLE10=Ball, Midnight in Moscow
TTITLE11=Ball, I Want a Girl
TTITLE12=Ball, China Girl
TTITLE13=Ball, Joshua fit de Battle of Jericho
TTITLE14=Bilk, Original Dixieland One Step
TTITLE15=Bilk, Tell 'em About Me
TTITLE16=Bilk, St Jame's Infirmary
TTITLE17=Bilk, Boola Boola
TTITLE18=Bilk, Go tell it on the Mountain
TTITLE19=Bilk, Stomp off, let's Go
TTITLE20=Bilk, Stranger on the Shore
TTITLE21=Bilk, Playout at the Jazz Band Ball
EXTD=YEAR: 1962
EXTT0=
EXTT1=
EXTT2=
EXTT3=
EXTT4=
EXTT5=
EXTT6=
EXTT7=
EXTT8=
EXTT9=
EXTT10=
EXTT11=
EXTT12=
EXTT13=
EXTT14=
EXTT15=
EXTT16=
EXTT17=
EXTT18=
EXTT19=
EXTT20=
EXTT21=
PLAYORDER=
